<mxfile host="app.diagrams.net" modified="2024-06-17T10:40:02.285Z" agent="Mozilla/5.0 (Windows NT 10.0; Win64; x64) AppleWebKit/537.36 (KHTML, like Gecko) Chrome/125.0.0.0 Safari/537.36" etag="0rUtTE71sJJCO1vqkBCj" version="24.5.4" type="github">
  <diagram id="C5RBs43oDa-KdzZeNtuy" name="Page-1">
    <mxGraphModel dx="1235" dy="665" grid="1" gridSize="10" guides="1" tooltips="1" connect="1" arrows="1" fold="1" page="1" pageScale="1" pageWidth="827" pageHeight="1169" math="0" shadow="0">
      <root>
        <mxCell id="WIyWlLk6GJQsqaUBKTNV-0" />
        <mxCell id="WIyWlLk6GJQsqaUBKTNV-1" parent="WIyWlLk6GJQsqaUBKTNV-0" />
        <mxCell id="SjRsKsdpvYWypGudX9FK-84" style="edgeStyle=orthogonalEdgeStyle;rounded=0;orthogonalLoop=1;jettySize=auto;html=1;endArrow=block;endFill=0;exitX=0.006;exitY=0.164;exitDx=0;exitDy=0;exitPerimeter=0;" edge="1" parent="WIyWlLk6GJQsqaUBKTNV-1" source="zkfFHV4jXpPFQw0GAbJ--0" target="SjRsKsdpvYWypGudX9FK-80">
          <mxGeometry relative="1" as="geometry">
            <mxPoint x="300" y="40" as="targetPoint" />
          </mxGeometry>
        </mxCell>
        <mxCell id="zkfFHV4jXpPFQw0GAbJ--0" value="Field" style="swimlane;fontStyle=2;align=center;verticalAlign=top;childLayout=stackLayout;horizontal=1;startSize=26;horizontalStack=0;resizeParent=1;resizeLast=0;collapsible=1;marginBottom=0;rounded=0;shadow=0;strokeWidth=1;" parent="WIyWlLk6GJQsqaUBKTNV-1" vertex="1">
          <mxGeometry x="350" y="20" width="160" height="90" as="geometry">
            <mxRectangle x="230" y="140" width="160" height="26" as="alternateBounds" />
          </mxGeometry>
        </mxCell>
        <mxCell id="zkfFHV4jXpPFQw0GAbJ--3" value="- Value(any)" style="text;align=left;verticalAlign=top;spacingLeft=4;spacingRight=4;overflow=hidden;rotatable=0;points=[[0,0.5],[1,0.5]];portConstraint=eastwest;rounded=0;shadow=0;html=0;" parent="zkfFHV4jXpPFQw0GAbJ--0" vertex="1">
          <mxGeometry y="26" width="160" height="26" as="geometry" />
        </mxCell>
        <mxCell id="zkfFHV4jXpPFQw0GAbJ--4" value="" style="line;html=1;strokeWidth=1;align=left;verticalAlign=middle;spacingTop=-1;spacingLeft=3;spacingRight=3;rotatable=0;labelPosition=right;points=[];portConstraint=eastwest;" parent="zkfFHV4jXpPFQw0GAbJ--0" vertex="1">
          <mxGeometry y="52" width="160" height="8" as="geometry" />
        </mxCell>
        <mxCell id="zkfFHV4jXpPFQw0GAbJ--5" value="- __getitem__" style="text;align=left;verticalAlign=top;spacingLeft=4;spacingRight=4;overflow=hidden;rotatable=0;points=[[0,0.5],[1,0.5]];portConstraint=eastwest;" parent="zkfFHV4jXpPFQw0GAbJ--0" vertex="1">
          <mxGeometry y="60" width="160" height="26" as="geometry" />
        </mxCell>
        <mxCell id="SjRsKsdpvYWypGudX9FK-38" style="edgeStyle=orthogonalEdgeStyle;rounded=0;orthogonalLoop=1;jettySize=auto;html=1;entryX=0;entryY=0.5;entryDx=0;entryDy=0;endArrow=block;endFill=0;" edge="1" parent="WIyWlLk6GJQsqaUBKTNV-1" source="SjRsKsdpvYWypGudX9FK-2" target="zkfFHV4jXpPFQw0GAbJ--3">
          <mxGeometry relative="1" as="geometry" />
        </mxCell>
        <mxCell id="SjRsKsdpvYWypGudX9FK-2" value="Name" style="swimlane;fontStyle=2;align=center;verticalAlign=top;childLayout=stackLayout;horizontal=1;startSize=26;horizontalStack=0;resizeParent=1;resizeLast=0;collapsible=1;marginBottom=0;rounded=0;shadow=0;strokeWidth=1;" vertex="1" parent="WIyWlLk6GJQsqaUBKTNV-1">
          <mxGeometry x="40" y="200" width="120" height="140" as="geometry">
            <mxRectangle x="230" y="140" width="160" height="26" as="alternateBounds" />
          </mxGeometry>
        </mxCell>
        <mxCell id="SjRsKsdpvYWypGudX9FK-3" value="-Value:(str)" style="text;align=left;verticalAlign=top;spacingLeft=4;spacingRight=4;overflow=hidden;rotatable=0;points=[[0,0.5],[1,0.5]];portConstraint=eastwest;" vertex="1" parent="SjRsKsdpvYWypGudX9FK-2">
          <mxGeometry y="26" width="120" height="26" as="geometry" />
        </mxCell>
        <mxCell id="SjRsKsdpvYWypGudX9FK-6" value="" style="line;html=1;strokeWidth=1;align=left;verticalAlign=middle;spacingTop=-1;spacingLeft=3;spacingRight=3;rotatable=0;labelPosition=right;points=[];portConstraint=eastwest;" vertex="1" parent="SjRsKsdpvYWypGudX9FK-2">
          <mxGeometry y="52" width="120" height="8" as="geometry" />
        </mxCell>
        <mxCell id="SjRsKsdpvYWypGudX9FK-7" value="-__init__&#xa;-__getitem__" style="text;align=left;verticalAlign=top;spacingLeft=4;spacingRight=4;overflow=hidden;rotatable=0;points=[[0,0.5],[1,0.5]];portConstraint=eastwest;" vertex="1" parent="SjRsKsdpvYWypGudX9FK-2">
          <mxGeometry y="60" width="120" height="80" as="geometry" />
        </mxCell>
        <mxCell id="SjRsKsdpvYWypGudX9FK-37" style="edgeStyle=orthogonalEdgeStyle;rounded=0;orthogonalLoop=1;jettySize=auto;html=1;exitX=0.5;exitY=0;exitDx=0;exitDy=0;entryX=0;entryY=0.5;entryDx=0;entryDy=0;endArrow=block;endFill=0;" edge="1" parent="WIyWlLk6GJQsqaUBKTNV-1" source="SjRsKsdpvYWypGudX9FK-8" target="zkfFHV4jXpPFQw0GAbJ--5">
          <mxGeometry relative="1" as="geometry" />
        </mxCell>
        <mxCell id="SjRsKsdpvYWypGudX9FK-8" value="Phone" style="swimlane;fontStyle=2;align=center;verticalAlign=top;childLayout=stackLayout;horizontal=1;startSize=26;horizontalStack=0;resizeParent=1;resizeLast=0;collapsible=1;marginBottom=0;rounded=0;shadow=0;strokeWidth=1;" vertex="1" parent="WIyWlLk6GJQsqaUBKTNV-1">
          <mxGeometry x="170" y="200" width="120" height="138" as="geometry">
            <mxRectangle x="230" y="140" width="160" height="26" as="alternateBounds" />
          </mxGeometry>
        </mxCell>
        <mxCell id="SjRsKsdpvYWypGudX9FK-10" value="-Value:(str)" style="text;align=left;verticalAlign=top;spacingLeft=4;spacingRight=4;overflow=hidden;rotatable=0;points=[[0,0.5],[1,0.5]];portConstraint=eastwest;rounded=0;shadow=0;html=0;" vertex="1" parent="SjRsKsdpvYWypGudX9FK-8">
          <mxGeometry y="26" width="120" height="26" as="geometry" />
        </mxCell>
        <mxCell id="SjRsKsdpvYWypGudX9FK-12" value="" style="line;html=1;strokeWidth=1;align=left;verticalAlign=middle;spacingTop=-1;spacingLeft=3;spacingRight=3;rotatable=0;labelPosition=right;points=[];portConstraint=eastwest;" vertex="1" parent="SjRsKsdpvYWypGudX9FK-8">
          <mxGeometry y="52" width="120" height="8" as="geometry" />
        </mxCell>
        <mxCell id="SjRsKsdpvYWypGudX9FK-51" value="-__init__&#xa;-__getitem__" style="text;align=left;verticalAlign=top;spacingLeft=4;spacingRight=4;overflow=hidden;rotatable=0;points=[[0,0.5],[1,0.5]];portConstraint=eastwest;" vertex="1" parent="SjRsKsdpvYWypGudX9FK-8">
          <mxGeometry y="60" width="120" height="50" as="geometry" />
        </mxCell>
        <mxCell id="SjRsKsdpvYWypGudX9FK-14" value="Email" style="swimlane;fontStyle=2;align=center;verticalAlign=top;childLayout=stackLayout;horizontal=1;startSize=26;horizontalStack=0;resizeParent=1;resizeLast=0;collapsible=1;marginBottom=0;rounded=0;shadow=0;strokeWidth=1;" vertex="1" parent="WIyWlLk6GJQsqaUBKTNV-1">
          <mxGeometry x="300" y="200" width="120" height="138" as="geometry">
            <mxRectangle x="230" y="140" width="160" height="26" as="alternateBounds" />
          </mxGeometry>
        </mxCell>
        <mxCell id="SjRsKsdpvYWypGudX9FK-16" value="-Value:(str)" style="text;align=left;verticalAlign=top;spacingLeft=4;spacingRight=4;overflow=hidden;rotatable=0;points=[[0,0.5],[1,0.5]];portConstraint=eastwest;rounded=0;shadow=0;html=0;" vertex="1" parent="SjRsKsdpvYWypGudX9FK-14">
          <mxGeometry y="26" width="120" height="26" as="geometry" />
        </mxCell>
        <mxCell id="SjRsKsdpvYWypGudX9FK-18" value="" style="line;html=1;strokeWidth=1;align=left;verticalAlign=middle;spacingTop=-1;spacingLeft=3;spacingRight=3;rotatable=0;labelPosition=right;points=[];portConstraint=eastwest;" vertex="1" parent="SjRsKsdpvYWypGudX9FK-14">
          <mxGeometry y="52" width="120" height="8" as="geometry" />
        </mxCell>
        <mxCell id="SjRsKsdpvYWypGudX9FK-52" value="-__init__&#xa;-__getitem__" style="text;align=left;verticalAlign=top;spacingLeft=4;spacingRight=4;overflow=hidden;rotatable=0;points=[[0,0.5],[1,0.5]];portConstraint=eastwest;" vertex="1" parent="SjRsKsdpvYWypGudX9FK-14">
          <mxGeometry y="60" width="120" height="50" as="geometry" />
        </mxCell>
        <mxCell id="SjRsKsdpvYWypGudX9FK-20" value="Birthday" style="swimlane;fontStyle=2;align=center;verticalAlign=top;childLayout=stackLayout;horizontal=1;startSize=26;horizontalStack=0;resizeParent=1;resizeLast=0;collapsible=1;marginBottom=0;rounded=0;shadow=0;strokeWidth=1;" vertex="1" parent="WIyWlLk6GJQsqaUBKTNV-1">
          <mxGeometry x="430" y="200" width="120" height="138" as="geometry">
            <mxRectangle x="230" y="140" width="160" height="26" as="alternateBounds" />
          </mxGeometry>
        </mxCell>
        <mxCell id="SjRsKsdpvYWypGudX9FK-21" value="-Value:(date)" style="text;align=left;verticalAlign=top;spacingLeft=4;spacingRight=4;overflow=hidden;rotatable=0;points=[[0,0.5],[1,0.5]];portConstraint=eastwest;" vertex="1" parent="SjRsKsdpvYWypGudX9FK-20">
          <mxGeometry y="26" width="120" height="26" as="geometry" />
        </mxCell>
        <mxCell id="SjRsKsdpvYWypGudX9FK-24" value="" style="line;html=1;strokeWidth=1;align=left;verticalAlign=middle;spacingTop=-1;spacingLeft=3;spacingRight=3;rotatable=0;labelPosition=right;points=[];portConstraint=eastwest;" vertex="1" parent="SjRsKsdpvYWypGudX9FK-20">
          <mxGeometry y="52" width="120" height="8" as="geometry" />
        </mxCell>
        <mxCell id="SjRsKsdpvYWypGudX9FK-53" value="-__init__&#xa;-__getitem__" style="text;align=left;verticalAlign=top;spacingLeft=4;spacingRight=4;overflow=hidden;rotatable=0;points=[[0,0.5],[1,0.5]];portConstraint=eastwest;" vertex="1" parent="SjRsKsdpvYWypGudX9FK-20">
          <mxGeometry y="60" width="120" height="50" as="geometry" />
        </mxCell>
        <mxCell id="SjRsKsdpvYWypGudX9FK-33" style="edgeStyle=orthogonalEdgeStyle;rounded=0;orthogonalLoop=1;jettySize=auto;html=1;exitX=0.5;exitY=0;exitDx=0;exitDy=0;endArrow=block;endFill=0;entryX=1;entryY=0.5;entryDx=0;entryDy=0;" edge="1" parent="WIyWlLk6GJQsqaUBKTNV-1" source="SjRsKsdpvYWypGudX9FK-26" target="zkfFHV4jXpPFQw0GAbJ--5">
          <mxGeometry relative="1" as="geometry">
            <mxPoint x="750" y="110" as="targetPoint" />
          </mxGeometry>
        </mxCell>
        <mxCell id="SjRsKsdpvYWypGudX9FK-26" value="Status" style="swimlane;fontStyle=2;align=center;verticalAlign=top;childLayout=stackLayout;horizontal=1;startSize=26;horizontalStack=0;resizeParent=1;resizeLast=0;collapsible=1;marginBottom=0;rounded=0;shadow=0;strokeWidth=1;" vertex="1" parent="WIyWlLk6GJQsqaUBKTNV-1">
          <mxGeometry x="560" y="200" width="120" height="138" as="geometry">
            <mxRectangle x="230" y="140" width="160" height="26" as="alternateBounds" />
          </mxGeometry>
        </mxCell>
        <mxCell id="SjRsKsdpvYWypGudX9FK-27" value="-Value:(str)" style="text;align=left;verticalAlign=top;spacingLeft=4;spacingRight=4;overflow=hidden;rotatable=0;points=[[0,0.5],[1,0.5]];portConstraint=eastwest;" vertex="1" parent="SjRsKsdpvYWypGudX9FK-26">
          <mxGeometry y="26" width="120" height="26" as="geometry" />
        </mxCell>
        <mxCell id="SjRsKsdpvYWypGudX9FK-28" value="-status_types(list" style="text;align=left;verticalAlign=top;spacingLeft=4;spacingRight=4;overflow=hidden;rotatable=0;points=[[0,0.5],[1,0.5]];portConstraint=eastwest;rounded=0;shadow=0;html=0;" vertex="1" parent="SjRsKsdpvYWypGudX9FK-26">
          <mxGeometry y="52" width="120" height="26" as="geometry" />
        </mxCell>
        <mxCell id="SjRsKsdpvYWypGudX9FK-30" value="" style="line;html=1;strokeWidth=1;align=left;verticalAlign=middle;spacingTop=-1;spacingLeft=3;spacingRight=3;rotatable=0;labelPosition=right;points=[];portConstraint=eastwest;" vertex="1" parent="SjRsKsdpvYWypGudX9FK-26">
          <mxGeometry y="78" width="120" height="8" as="geometry" />
        </mxCell>
        <mxCell id="SjRsKsdpvYWypGudX9FK-54" value="-__init__&#xa;-__getitem__" style="text;align=left;verticalAlign=top;spacingLeft=4;spacingRight=4;overflow=hidden;rotatable=0;points=[[0,0.5],[1,0.5]];portConstraint=eastwest;" vertex="1" parent="SjRsKsdpvYWypGudX9FK-26">
          <mxGeometry y="86" width="120" height="50" as="geometry" />
        </mxCell>
        <mxCell id="SjRsKsdpvYWypGudX9FK-48" style="edgeStyle=orthogonalEdgeStyle;rounded=0;orthogonalLoop=1;jettySize=auto;html=1;endArrow=block;endFill=0;entryX=1;entryY=0.5;entryDx=0;entryDy=0;" edge="1" parent="WIyWlLk6GJQsqaUBKTNV-1" source="SjRsKsdpvYWypGudX9FK-39" target="zkfFHV4jXpPFQw0GAbJ--3">
          <mxGeometry relative="1" as="geometry" />
        </mxCell>
        <mxCell id="SjRsKsdpvYWypGudX9FK-39" value="Note" style="swimlane;fontStyle=2;align=center;verticalAlign=top;childLayout=stackLayout;horizontal=1;startSize=26;horizontalStack=0;resizeParent=1;resizeLast=0;collapsible=1;marginBottom=0;rounded=0;shadow=0;strokeWidth=1;" vertex="1" parent="WIyWlLk6GJQsqaUBKTNV-1">
          <mxGeometry x="690" y="200" width="120" height="138" as="geometry">
            <mxRectangle x="230" y="140" width="160" height="26" as="alternateBounds" />
          </mxGeometry>
        </mxCell>
        <mxCell id="SjRsKsdpvYWypGudX9FK-40" value="-Value:(str)" style="text;align=left;verticalAlign=top;spacingLeft=4;spacingRight=4;overflow=hidden;rotatable=0;points=[[0,0.5],[1,0.5]];portConstraint=eastwest;" vertex="1" parent="SjRsKsdpvYWypGudX9FK-39">
          <mxGeometry y="26" width="120" height="26" as="geometry" />
        </mxCell>
        <mxCell id="SjRsKsdpvYWypGudX9FK-43" value="" style="line;html=1;strokeWidth=1;align=left;verticalAlign=middle;spacingTop=-1;spacingLeft=3;spacingRight=3;rotatable=0;labelPosition=right;points=[];portConstraint=eastwest;" vertex="1" parent="SjRsKsdpvYWypGudX9FK-39">
          <mxGeometry y="52" width="120" height="8" as="geometry" />
        </mxCell>
        <mxCell id="SjRsKsdpvYWypGudX9FK-55" value="-__init__&#xa;-__getitem__" style="text;align=left;verticalAlign=top;spacingLeft=4;spacingRight=4;overflow=hidden;rotatable=0;points=[[0,0.5],[1,0.5]];portConstraint=eastwest;" vertex="1" parent="SjRsKsdpvYWypGudX9FK-39">
          <mxGeometry y="60" width="120" height="50" as="geometry" />
        </mxCell>
        <mxCell id="SjRsKsdpvYWypGudX9FK-46" style="edgeStyle=orthogonalEdgeStyle;rounded=0;orthogonalLoop=1;jettySize=auto;html=1;entryX=0.75;entryY=1;entryDx=0;entryDy=0;endArrow=block;endFill=0;" edge="1" parent="WIyWlLk6GJQsqaUBKTNV-1" source="SjRsKsdpvYWypGudX9FK-20" target="zkfFHV4jXpPFQw0GAbJ--0">
          <mxGeometry relative="1" as="geometry">
            <Array as="points">
              <mxPoint x="490" y="150" />
              <mxPoint x="470" y="150" />
            </Array>
          </mxGeometry>
        </mxCell>
        <mxCell id="SjRsKsdpvYWypGudX9FK-47" style="edgeStyle=orthogonalEdgeStyle;rounded=0;orthogonalLoop=1;jettySize=auto;html=1;endArrow=block;endFill=0;entryX=0.25;entryY=1;entryDx=0;entryDy=0;" edge="1" parent="WIyWlLk6GJQsqaUBKTNV-1" source="SjRsKsdpvYWypGudX9FK-14" target="zkfFHV4jXpPFQw0GAbJ--0">
          <mxGeometry relative="1" as="geometry">
            <mxPoint x="410" y="150" as="targetPoint" />
          </mxGeometry>
        </mxCell>
        <mxCell id="SjRsKsdpvYWypGudX9FK-56" value="AdressBook" style="swimlane;fontStyle=2;align=center;verticalAlign=top;childLayout=stackLayout;horizontal=1;startSize=26;horizontalStack=0;resizeParent=1;resizeLast=0;collapsible=1;marginBottom=0;rounded=0;shadow=0;strokeWidth=1;" vertex="1" parent="WIyWlLk6GJQsqaUBKTNV-1">
          <mxGeometry x="190" y="405" width="120" height="300" as="geometry">
            <mxRectangle x="230" y="140" width="160" height="26" as="alternateBounds" />
          </mxGeometry>
        </mxCell>
        <mxCell id="SjRsKsdpvYWypGudX9FK-57" value="-data:list&#xa;-counter: int" style="text;align=left;verticalAlign=top;spacingLeft=4;spacingRight=4;overflow=hidden;rotatable=0;points=[[0,0.5],[1,0.5]];portConstraint=eastwest;rounded=0;shadow=0;html=0;" vertex="1" parent="SjRsKsdpvYWypGudX9FK-56">
          <mxGeometry y="26" width="120" height="44" as="geometry" />
        </mxCell>
        <mxCell id="SjRsKsdpvYWypGudX9FK-58" value="" style="line;html=1;strokeWidth=1;align=left;verticalAlign=middle;spacingTop=-1;spacingLeft=3;spacingRight=3;rotatable=0;labelPosition=right;points=[];portConstraint=eastwest;" vertex="1" parent="SjRsKsdpvYWypGudX9FK-56">
          <mxGeometry y="70" width="120" height="10" as="geometry" />
        </mxCell>
        <mxCell id="SjRsKsdpvYWypGudX9FK-59" value="+log&#xa;+add&#xa;+save&#xa;+load&#xa;+search&#xa;+edit&#xa;+remove&#xa;+congratulate&#xa;+__get_curent_week&#xa;-__init__&#xa;-__getitem__&#xa;-__str__&#xa;-__next__&#xa;-__iter__&#xa;-__setitem&#xa;" style="text;align=left;verticalAlign=top;spacingLeft=4;spacingRight=4;overflow=hidden;rotatable=0;points=[[0,0.5],[1,0.5]];portConstraint=eastwest;" vertex="1" parent="SjRsKsdpvYWypGudX9FK-56">
          <mxGeometry y="80" width="120" height="220" as="geometry" />
        </mxCell>
        <mxCell id="SjRsKsdpvYWypGudX9FK-60" value="UserList" style="swimlane;fontStyle=2;align=center;verticalAlign=top;childLayout=stackLayout;horizontal=1;startSize=50;horizontalStack=0;resizeParent=1;resizeLast=0;collapsible=1;marginBottom=0;rounded=0;shadow=0;strokeWidth=1;" vertex="1" parent="WIyWlLk6GJQsqaUBKTNV-1">
          <mxGeometry x="30" y="437" width="120" height="32" as="geometry">
            <mxRectangle x="230" y="140" width="160" height="26" as="alternateBounds" />
          </mxGeometry>
        </mxCell>
        <mxCell id="SjRsKsdpvYWypGudX9FK-66" style="edgeStyle=orthogonalEdgeStyle;rounded=0;orthogonalLoop=1;jettySize=auto;html=1;exitX=0;exitY=0.5;exitDx=0;exitDy=0;entryX=1;entryY=0.5;entryDx=0;entryDy=0;endArrow=block;endFill=0;" edge="1" parent="WIyWlLk6GJQsqaUBKTNV-1" source="SjRsKsdpvYWypGudX9FK-57" target="SjRsKsdpvYWypGudX9FK-60">
          <mxGeometry relative="1" as="geometry" />
        </mxCell>
        <mxCell id="SjRsKsdpvYWypGudX9FK-73" style="edgeStyle=orthogonalEdgeStyle;rounded=0;orthogonalLoop=1;jettySize=auto;html=1;exitX=0.5;exitY=0;exitDx=0;exitDy=0;entryX=0.5;entryY=1;entryDx=0;entryDy=0;dashed=1;" edge="1" parent="WIyWlLk6GJQsqaUBKTNV-1" source="SjRsKsdpvYWypGudX9FK-68" target="SjRsKsdpvYWypGudX9FK-8">
          <mxGeometry relative="1" as="geometry">
            <Array as="points">
              <mxPoint x="560" y="380" />
              <mxPoint x="230" y="380" />
            </Array>
          </mxGeometry>
        </mxCell>
        <mxCell id="SjRsKsdpvYWypGudX9FK-74" style="edgeStyle=orthogonalEdgeStyle;rounded=0;orthogonalLoop=1;jettySize=auto;html=1;exitX=0.5;exitY=0;exitDx=0;exitDy=0;entryX=0.5;entryY=1;entryDx=0;entryDy=0;dashed=1;" edge="1" parent="WIyWlLk6GJQsqaUBKTNV-1" source="SjRsKsdpvYWypGudX9FK-68" target="SjRsKsdpvYWypGudX9FK-14">
          <mxGeometry relative="1" as="geometry">
            <mxPoint x="560" y="350" as="targetPoint" />
            <Array as="points">
              <mxPoint x="560" y="370" />
              <mxPoint x="360" y="370" />
            </Array>
          </mxGeometry>
        </mxCell>
        <mxCell id="SjRsKsdpvYWypGudX9FK-75" style="edgeStyle=orthogonalEdgeStyle;rounded=0;orthogonalLoop=1;jettySize=auto;html=1;exitX=0.5;exitY=0;exitDx=0;exitDy=0;entryX=0.5;entryY=1;entryDx=0;entryDy=0;dashed=1;" edge="1" parent="WIyWlLk6GJQsqaUBKTNV-1" source="SjRsKsdpvYWypGudX9FK-68" target="SjRsKsdpvYWypGudX9FK-20">
          <mxGeometry relative="1" as="geometry">
            <Array as="points">
              <mxPoint x="560" y="360" />
              <mxPoint x="490" y="360" />
            </Array>
          </mxGeometry>
        </mxCell>
        <mxCell id="SjRsKsdpvYWypGudX9FK-77" style="edgeStyle=orthogonalEdgeStyle;rounded=0;orthogonalLoop=1;jettySize=auto;html=1;exitX=0.5;exitY=0;exitDx=0;exitDy=0;entryX=0.5;entryY=1;entryDx=0;entryDy=0;dashed=1;" edge="1" parent="WIyWlLk6GJQsqaUBKTNV-1" source="SjRsKsdpvYWypGudX9FK-68" target="SjRsKsdpvYWypGudX9FK-26">
          <mxGeometry relative="1" as="geometry">
            <Array as="points">
              <mxPoint x="560" y="380" />
              <mxPoint x="620" y="380" />
            </Array>
          </mxGeometry>
        </mxCell>
        <mxCell id="SjRsKsdpvYWypGudX9FK-78" style="edgeStyle=orthogonalEdgeStyle;rounded=0;orthogonalLoop=1;jettySize=auto;html=1;exitX=0.5;exitY=0;exitDx=0;exitDy=0;entryX=0.5;entryY=1;entryDx=0;entryDy=0;dashed=1;" edge="1" parent="WIyWlLk6GJQsqaUBKTNV-1" source="SjRsKsdpvYWypGudX9FK-68" target="SjRsKsdpvYWypGudX9FK-39">
          <mxGeometry relative="1" as="geometry">
            <Array as="points">
              <mxPoint x="560" y="390" />
              <mxPoint x="750" y="390" />
            </Array>
          </mxGeometry>
        </mxCell>
        <mxCell id="SjRsKsdpvYWypGudX9FK-68" value="Record" style="swimlane;fontStyle=2;align=center;verticalAlign=top;childLayout=stackLayout;horizontal=1;startSize=26;horizontalStack=0;resizeParent=1;resizeLast=0;collapsible=1;marginBottom=0;rounded=0;shadow=0;strokeWidth=1;" vertex="1" parent="WIyWlLk6GJQsqaUBKTNV-1">
          <mxGeometry x="540" y="405" width="120" height="180" as="geometry">
            <mxRectangle x="230" y="140" width="160" height="26" as="alternateBounds" />
          </mxGeometry>
        </mxCell>
        <mxCell id="SjRsKsdpvYWypGudX9FK-69" value="-name:Name&#xa;-phone:Phone&#xa;-email:Email&#xa;-birthday:Birthday&#xa;-status:Status&#xa;-note:Note" style="text;align=left;verticalAlign=top;spacingLeft=4;spacingRight=4;overflow=hidden;rotatable=0;points=[[0,0.5],[1,0.5]];portConstraint=eastwest;" vertex="1" parent="SjRsKsdpvYWypGudX9FK-68">
          <mxGeometry y="26" width="120" height="94" as="geometry" />
        </mxCell>
        <mxCell id="SjRsKsdpvYWypGudX9FK-70" value="" style="line;html=1;strokeWidth=1;align=left;verticalAlign=middle;spacingTop=-1;spacingLeft=3;spacingRight=3;rotatable=0;labelPosition=right;points=[];portConstraint=eastwest;" vertex="1" parent="SjRsKsdpvYWypGudX9FK-68">
          <mxGeometry y="120" width="120" height="10" as="geometry" />
        </mxCell>
        <mxCell id="SjRsKsdpvYWypGudX9FK-71" value="+days_to_birthday&#xa;-__init__&#xa;" style="text;align=left;verticalAlign=top;spacingLeft=4;spacingRight=4;overflow=hidden;rotatable=0;points=[[0,0.5],[1,0.5]];portConstraint=eastwest;" vertex="1" parent="SjRsKsdpvYWypGudX9FK-68">
          <mxGeometry y="130" width="120" height="50" as="geometry" />
        </mxCell>
        <mxCell id="SjRsKsdpvYWypGudX9FK-72" style="edgeStyle=orthogonalEdgeStyle;rounded=0;orthogonalLoop=1;jettySize=auto;html=1;exitX=0.5;exitY=0;exitDx=0;exitDy=0;entryX=0.49;entryY=1.032;entryDx=0;entryDy=0;entryPerimeter=0;dashed=1;" edge="1" parent="WIyWlLk6GJQsqaUBKTNV-1" source="SjRsKsdpvYWypGudX9FK-68" target="SjRsKsdpvYWypGudX9FK-7">
          <mxGeometry relative="1" as="geometry">
            <Array as="points">
              <mxPoint x="560" y="390" />
              <mxPoint x="99" y="390" />
            </Array>
          </mxGeometry>
        </mxCell>
        <mxCell id="SjRsKsdpvYWypGudX9FK-80" value="ABC" style="swimlane;fontStyle=2;align=center;verticalAlign=top;childLayout=stackLayout;horizontal=1;startSize=80;horizontalStack=0;resizeParent=1;resizeLast=0;collapsible=1;marginBottom=0;rounded=0;shadow=0;strokeWidth=1;" vertex="1" parent="WIyWlLk6GJQsqaUBKTNV-1">
          <mxGeometry x="130" y="20" width="160" height="30" as="geometry">
            <mxRectangle x="230" y="140" width="160" height="26" as="alternateBounds" />
          </mxGeometry>
        </mxCell>
        <mxCell id="SjRsKsdpvYWypGudX9FK-91" style="edgeStyle=orthogonalEdgeStyle;rounded=0;orthogonalLoop=1;jettySize=auto;html=1;entryX=1;entryY=0.5;entryDx=0;entryDy=0;dashed=1;" edge="1" parent="WIyWlLk6GJQsqaUBKTNV-1" source="SjRsKsdpvYWypGudX9FK-85" target="SjRsKsdpvYWypGudX9FK-57">
          <mxGeometry relative="1" as="geometry" />
        </mxCell>
        <mxCell id="SjRsKsdpvYWypGudX9FK-85" value="Bot" style="swimlane;fontStyle=2;align=center;verticalAlign=top;childLayout=stackLayout;horizontal=1;startSize=26;horizontalStack=0;resizeParent=1;resizeLast=0;collapsible=1;marginBottom=0;rounded=0;shadow=0;strokeWidth=1;" vertex="1" parent="WIyWlLk6GJQsqaUBKTNV-1">
          <mxGeometry x="360" y="469" width="120" height="110" as="geometry">
            <mxRectangle x="230" y="140" width="160" height="26" as="alternateBounds" />
          </mxGeometry>
        </mxCell>
        <mxCell id="SjRsKsdpvYWypGudX9FK-87" value="book:AdressBook" style="text;html=1;align=center;verticalAlign=middle;resizable=0;points=[];autosize=1;strokeColor=none;fillColor=none;" vertex="1" parent="SjRsKsdpvYWypGudX9FK-85">
          <mxGeometry y="26" width="120" height="30" as="geometry" />
        </mxCell>
        <mxCell id="SjRsKsdpvYWypGudX9FK-88" value="" style="line;html=1;strokeWidth=1;align=left;verticalAlign=middle;spacingTop=-1;spacingLeft=3;spacingRight=3;rotatable=0;labelPosition=right;points=[];portConstraint=eastwest;" vertex="1" parent="SjRsKsdpvYWypGudX9FK-85">
          <mxGeometry y="56" width="120" height="8" as="geometry" />
        </mxCell>
        <mxCell id="SjRsKsdpvYWypGudX9FK-89" value="+handle&lt;div&gt;-__init__&lt;/div&gt;" style="text;html=1;align=center;verticalAlign=middle;resizable=0;points=[];autosize=1;strokeColor=none;fillColor=none;" vertex="1" parent="SjRsKsdpvYWypGudX9FK-85">
          <mxGeometry y="64" width="120" height="40" as="geometry" />
        </mxCell>
      </root>
    </mxGraphModel>
  </diagram>
</mxfile>
